<svg width="692" height="700" viewBox="0 0 692 700" fill="none" xmlns="http://www.w3.org/2000/svg">
<path d="M350 0C516.221 0 655.378 115.873 691.104 271.25H587.345C554.353 171.764 460.557 100 350 100C211.929 100 100 211.929 100 350C100 488.071 211.929 600 350 600C460.557 600 554.353 528.236 587.345 428.75H691.104C655.378 584.127 516.221 700 350 700C156.7 700 0 543.3 0 350C0 156.7 156.7 1.65021e-05 350 0Z" fill="black"/>
<line x1="287.355" y1="336.943" x2="347.459" y2="397.047" stroke="black" stroke-width="50" stroke-linecap="round"/>
<line x1="348.021" y1="396.35" x2="482.372" y2="262" stroke="black" stroke-width="50" stroke-linecap="round"/>
</svg>
